PathFileType	4	(X/Y/Z)	C:/Users/opensim2020/Desktop/walking_exp_matlab/subject01_walking12_straight_04.trc	
DataRate	CameraRate	NumFrames	NumMarkers	Units	OrigDataRate	OrigDataStartFrame	OrigNumFrames	
100.00	100.00	8	44	mm	100.00	2501	172	
Frame#	Time	LFHD			RFHD			LBHD			RBHD			C7			T10			CLAV			STRN			RBAK			LSHO			LUPA			LELB			LFRM			LWRA			LWRB			LFIN			RSHO			RUPA			RELB			RFRM			RWRA			RWRB			RFIN			LASI			RASI			LPSI			RPSI			LTHI			LKNE			LTIB			LANK			LHEE			LTOE			RTHI			RKNE			RTIB			RANK			RHEE			RTOE			*39			*40			*41			*42			*43			
		X1	Y1	Z1	X2	Y2	Z2	X3	Y3	Z3	X4	Y4	Z4	X5	Y5	Z5	X6	Y6	Z6	X7	Y7	Z7	X8	Y8	Z8	X9	Y9	Z9	X10	Y10	Z10	X11	Y11	Z11	X12	Y12	Z12	X13	Y13	Z13	X14	Y14	Z14	X15	Y15	Z15	X16	Y16	Z16	X17	Y17	Z17	X18	Y18	Z18	X19	Y19	Z19	X20	Y20	Z20	X21	Y21	Z21	X22	Y22	Z22	X23	Y23	Z23	X24	Y24	Z24	X25	Y25	Z25	X26	Y26	Z26	X27	Y27	Z27	X28	Y28	Z28	X29	Y29	Z29	X30	Y30	Z30	X31	Y31	Z31	X32	Y32	Z32	X33	Y33	Z33	X34	Y34	Z34	X35	Y35	Z35	X36	Y36	Z36	X37	Y37	Z37	X38	Y38	Z38	X39	Y39	Z39	X40	Y40	Z40	X41	Y41	Z41	X42	Y42	Z42	X43	Y43	Z43	X44	Y44	Z44	

130	1.290	1557.52185	-509.29935	1638.86279	1443.89587	-519.68097	1638.04041	1554.75342	-386.11160	1622.11743	1433.91199	-393.62720	1621.03748	1519.89429	-307.71808	1420.90894	1503.04016	-268.96124	1124.71765	1510.93896	-449.80298	1348.78455	1516.31750	-491.02542	1195.54456	1443.27283	-247.38280	1224.25549	1674.64246	-396.49780	1381.92236	1769.20642	-395.75510	1203.88379	1787.89600	-426.12088	1053.87817	1810.13635	-531.41888	1003.01062	1792.43298	-667.98578	986.35669	1812.17456	-635.45239	940.52228	1829.95007	-716.22083	932.31854	1361.21960	-380.22394	1379.62415	1269.29688	-281.14267	1193.51404	1265.69165	-256.61322	1072.86487	1231.51917	-248.62700	954.36572	1240.95923	-293.86673	818.97333	1207.48608	-248.62982	833.51776	1204.98486	-262.28922	748.31262	1618.34229	-444.23047	923.69525	1399.66699	-461.76114	926.14215	1545.46838	-262.51743	929.37122	1402.36755	-275.99152	926.38953	1665.38672	-353.45145	596.52661	1649.46643	-312.91238	464.14417	1655.02502	-203.08548	307.52066	1605.08020	-97.75339	113.79853	1554.44421	-44.24207	104.92233	1599.03845	-221.82748	31.40770	1330.58691	-489.92801	599.24121	1360.53503	-554.78119	458.26028	1351.54211	-561.34564	283.69443	1393.96912	-620.85547	80.86678	1449.56628	-595.53845	28.45520	1383.10803	-764.26959	89.72741	1465.76184	-516.50171	1673.54431	-3102.04834	1973.05090	1023.72308	-3140.67065	2012.47839	1021.99115						 
131	1.300	1555.08167	-518.70197	1638.15674	1441.44128	-529.04919	1637.29663	1552.32654	-395.52432	1621.09863	1431.49780	-403.12073	1619.98083	1517.60034	-317.71021	1419.48486	1501.52612	-280.36081	1123.15601	1508.74597	-460.14301	1348.13428	1514.53394	-502.13901	1195.02771	1441.52832	-258.31339	1222.40857	1672.42371	-406.61606	1381.36243	1767.24182	-405.80054	1203.52576	1786.48865	-436.38269	1053.60522	1808.56128	-542.08521	1003.30072	1790.50671	-678.69629	987.58514	1810.41223	-646.50134	941.51227	1828.05676	-727.37238	934.04822	1358.98718	-390.31519	1378.23547	1267.91895	-291.16003	1191.81799	1264.30383	-266.88412	1071.31311	1230.27942	-258.37094	952.87085	1239.63196	-303.32590	817.41791	1206.40039	-257.51956	832.01239	1203.95813	-270.73688	746.61456	1617.31482	-456.17532	922.64355	1398.66284	-474.14969	925.01935	1543.84155	-274.96930	928.19031	1400.93591	-288.31870	925.11017	1664.87341	-363.83511	595.75146	1649.59509	-322.63434	463.64600	1655.37964	-209.86563	308.93750	1605.98267	-100.49672	117.26810	1555.41736	-46.84320	109.71642	1599.17151	-222.07706	31.46394	1331.11609	-502.85916	598.25342	1361.04932	-566.23560	456.88858	1352.50317	-571.78430	281.67377	1395.61462	-629.13873	78.54379	1451.04956	-603.38690	26.53246	1385.52869	-772.79297	86.57146	1463.27393	-525.91693	1672.89832	-3101.90308	1972.99048	1023.40192	-3140.63306	2012.53650	1022.18323						 
132	1.310	1552.59851	-527.98273	1637.48181	1438.90833	-538.33936	1636.61743	1549.89270	-404.88522	1620.03748	1428.65601	-412.60651	1618.89368	1515.26135	-327.84631	1417.99817	1499.98096	-291.91095	1121.45215	1506.46326	-470.55695	1347.36536	1512.65442	-513.40845	1194.57373	1439.79272	-269.32275	1220.48022	1670.12378	-416.77844	1380.75964	1765.20203	-415.84354	1203.14868	1785.02686	-446.38022	1053.30493	1806.87659	-552.37665	1003.41479	1788.55994	-688.93115	988.30963	1808.62573	-657.04871	942.09460	1826.06018	-738.08282	935.12488	1356.77026	-400.30786	1376.82239	1266.43591	-301.36252	1189.98328	1262.76270	-277.41656	1069.60925	1228.96228	-268.45691	951.31165	1238.55017	-312.57452	815.49390	1205.20435	-267.20340	830.40161	1202.99658	-279.58646	744.81940	1616.06104	-468.36224	921.48309	1397.63110	-486.92581	923.93689	1542.43677	-287.22498	927.22876	1399.43201	-300.94656	923.79913	1664.32935	-374.74649	594.81122	1649.39697	-332.81064	462.85086	1655.66846	-217.12065	310.29056	1606.92163	-103.56357	120.90529	1556.31824	-49.96134	114.73544	1599.33069	-222.39449	31.50671	1331.32080	-516.33148	597.01489	1361.55933	-577.56396	454.99210	1353.53796	-581.33820	279.21280	1397.68652	-635.80640	75.79986	1452.48450	-608.59967	25.55792	1387.93225	-779.74976	82.39508	1460.75378	-535.12708	1672.24841	-3101.91016	1973.10706	1023.49243	-3140.68286	2012.40625	1021.90662						 
133	1.320	1550.06885	-537.14478	1636.82141	1436.41821	-547.50006	1635.96252	1547.39587	-414.10199	1618.81824	1426.54431	-421.64624	1617.70911	1512.78052	-337.90506	1416.39941	1498.38086	-303.65195	1119.66187	1504.01648	-481.00958	1346.53003	1510.74084	-524.85138	1194.08154	1437.92480	-280.55087	1218.43530	1667.62683	-427.04086	1380.08960	1763.15234	-425.88696	1202.69116	1783.46387	-456.09601	1052.81250	1805.13037	-562.30579	1003.25519	1786.50073	-698.87952	988.54706	1806.80981	-667.20703	942.33728	1823.92578	-748.38043	935.59302	1354.42566	-410.50867	1375.26709	1264.82129	-311.75729	1188.08936	1261.32312	-288.15405	1067.77612	1227.60120	-278.87704	949.50220	1237.34058	-322.56033	813.66144	1204.19324	-276.81573	828.66992	1201.93054	-289.07022	742.98822	1614.85535	-480.73520	920.29108	1396.40002	-499.89236	922.75391	1540.85754	-299.85370	926.23096	1397.94531	-313.79092	922.60529	1663.70422	-386.37881	593.66827	1649.35291	-343.79346	461.89697	1655.92712	-224.93132	311.57056	1607.76221	-106.98148	124.66633	1557.19458	-53.48907	120.02583	1599.48047	-222.65575	31.57523	1331.98816	-529.63196	595.45551	1362.01660	-588.62823	452.86353	1354.70569	-590.57928	276.79715	1399.14087	-642.17926	73.75590	1453.39624	-612.02283	25.39864	1390.75024	-785.62769	77.01366	1458.23218	-544.12488	1671.60913	-3102.06274	1973.09119	1023.44849	-3140.52954	2012.55200	1022.04456						 
134	1.330	1547.50415	-546.18066	1636.18347	1433.78821	-556.59851	1635.37097	1544.82312	-423.28412	1617.52466	1423.95520	-430.82288	1616.42053	1510.17639	-347.92532	1414.75293	1496.68591	-315.45923	1117.75989	1501.53467	-491.56049	1345.65234	1508.65906	-536.28101	1193.49158	1435.97278	-291.84634	1216.21204	1665.07605	-437.34961	1379.36890	1761.05444	-436.05042	1202.19067	1781.75232	-465.53400	1052.24927	1803.30029	-571.89874	1002.85767	1784.37939	-708.51740	988.30005	1804.94971	-676.96948	942.12097	1821.61853	-758.23572	935.45166	1351.80334	-420.74112	1373.70483	1263.08691	-322.28445	1186.06567	1259.63403	-299.16629	1065.83350	1226.30298	-289.54575	947.59180	1236.39331	-332.26126	811.35797	1202.99866	-287.24139	826.62128	1200.91235	-298.93497	740.95245	1613.44446	-493.39499	919.01416	1395.14539	-513.03693	921.61176	1539.31543	-312.49924	925.27356	1396.20532	-326.77768	921.35022	1662.99805	-398.56079	592.30377	1649.37390	-355.49509	460.66486	1656.20544	-233.26381	312.89944	1608.70898	-110.98026	128.68886	1558.03271	-57.55729	125.73225	1599.66809	-223.08144	31.89334	1332.93579	-542.63287	593.97858	1362.19971	-599.26520	450.56479	1356.31262	-598.92883	274.22849	1400.91699	-646.92847	72.05336	1454.58569	-613.15332	25.46555	1393.68286	-790.25031	68.40980	1455.62781	-552.98010	1670.95593	-3101.93628	1973.03516	1023.55804	-3140.64478	2012.52234	1021.99915						 
135	1.340	1544.87695	-555.40839	1635.99329	1431.01050	-565.70721	1635.17407	1542.23792	-432.54971	1616.37549	1421.35107	-439.98529	1615.28687	1507.42407	-357.68558	1413.44104	1494.78369	-327.31845	1115.93933	1498.95972	-502.07367	1344.75781	1506.52856	-547.65747	1193.20276	1433.89966	-303.11441	1213.94482	1662.52271	-447.68170	1378.75427	1758.91785	-446.25464	1201.55762	1779.88062	-474.78073	1051.50781	1801.39722	-581.22211	1002.10193	1782.17505	-717.84277	987.50049	1802.95117	-686.30713	941.43182	1819.30469	-767.77960	934.66394	1349.15332	-431.14063	1372.19824	1261.06311	-332.89090	1184.01050	1258.04590	-310.37045	1063.67578	1224.83911	-300.56049	945.52423	1235.10657	-343.18997	809.22540	1201.92090	-297.65591	824.50616	1200.11072	-309.01254	738.63702	1612.01477	-506.23792	917.76093	1393.83313	-525.80328	920.71503	1537.70361	-325.10217	924.39905	1393.94202	-339.73325	920.26532	1662.23181	-411.25934	590.91217	1649.21814	-367.56778	459.46933	1656.69861	-241.96191	314.53854	1609.85034	-115.33658	132.92230	1559.06799	-62.39793	131.90581	1599.85632	-223.49332	32.03646	1333.30884	-554.24835	593.27710	1361.99878	-610.79071	449.00577	1358.35522	-607.39911	273.42325	1401.71155	-650.59058	71.90330	1455.03271	-614.15009	26.52872	1395.60913	-793.39984	60.89746	1452.90820	-561.72797	1670.57959	-3101.89795	1973.07263	1023.49854	-3140.67456	2012.43140	1022.05267						 
136	1.350	1542.05750	-564.91571	1636.37231	1428.15491	-575.09100	1635.48303	1539.62085	-442.14063	1615.91602	1418.73254	-449.49283	1614.72131	1504.69019	-367.59665	1412.68848	1492.91479	-339.16867	1114.88928	1496.44250	-512.56281	1344.36548	1504.33459	-558.71576	1193.25330	1431.99121	-314.34485	1212.29993	1660.14856	-457.94702	1378.37915	1756.70117	-456.42413	1200.96509	1777.89514	-483.86682	1050.70789	1799.37207	-590.22485	1001.08429	1779.90137	-726.81287	986.13379	1800.83508	-695.25867	940.16266	1816.84265	-776.80939	933.21686	1346.48035	-441.50449	1370.84534	1259.03564	-344.00189	1181.87659	1256.29675	-321.81860	1061.50464	1223.33069	-311.92337	943.30756	1234.19299	-353.96231	806.85339	1200.73401	-309.11261	822.27618	1199.01318	-320.11880	736.52930	1610.40491	-518.94403	916.53833	1392.30200	-538.73676	920.27618	1536.19812	-337.61990	923.55701	1391.59338	-352.55908	919.60529	1661.27258	-424.54224	589.33099	1648.97644	-380.60007	458.04062	1656.97192	-251.63208	316.16342	1611.33215	-120.65533	137.66362	1560.66382	-68.33099	138.82130	1599.99048	-224.05292	31.93100	1332.25427	-564.93683	594.06158	1362.08838	-623.80127	450.10229	1358.36414	-617.05768	274.72568	1401.57788	-653.96039	71.92514	1454.24670	-615.51587	27.65684	1397.71570	-796.61456	56.28276	1450.16394	-570.46887	1670.63196	-3101.84595	1973.10352	1023.47937	-3140.64258	2012.48523	1022.08765						 
137	1.360	1539.18750	-574.73682	1637.03699	1425.33447	-584.76764	1635.98242	1536.95715	-452.04565	1616.17981	1416.08398	-459.21756	1614.77112	1502.13806	-378.13019	1412.74670	1491.35559	-350.78497	1114.60266	1493.97168	-522.89294	1344.64978	1502.07361	-569.60406	1193.55359	1430.16187	-325.09396	1211.66260	1657.95581	-468.12421	1378.32495	1754.38928	-466.38416	1200.65234	1775.73279	-492.86783	1050.11755	1797.25342	-598.94733	999.85370	1777.52051	-735.40106	984.16797	1798.60657	-703.62598	938.41333	1814.34338	-785.21057	931.09882	1343.87646	-451.81790	1369.88867	1256.97681	-355.65976	1179.80774	1254.56128	-333.78256	1059.38049	1221.82642	-323.68283	941.10309	1233.40955	-365.03384	804.49878	1199.38770	-320.47830	820.13507	1198.12500	-331.62317	734.43652	1608.52344	-531.47278	915.63672	1390.82813	-551.66449	920.39520	1534.85400	-350.13428	922.78467	1389.54871	-365.00366	919.77075	1660.17200	-438.58069	587.97614	1648.81067	-394.88843	456.56445	1657.35657	-262.47485	318.19931	1612.94348	-127.30188	143.03244	1562.13452	-75.65144	146.54762	1600.21338	-224.71930	32.13865	1330.75244	-575.51019	595.31433	1362.11414	-636.45111	452.36209	1356.76660	-627.59308	276.48920	1400.79443	-657.47345	72.29763	1452.98022	-617.11188	29.40190	1399.67175	-799.70142	51.12411	1447.25000	-579.83069	1671.26013	-3101.98926	1973.26892	1023.41144	-3140.88208	2012.44250	1022.09088						 
